<svg width="16" height="12" viewBox="0 0 16 12" fill="none" xmlns="http://www.w3.org/2000/svg">
<path d="M9.79964 11.3337C8.31075 11.3337 7.04964 10.817 6.01631 9.78366C4.98298 8.75033 4.46631 7.48921 4.46631 6.00033C4.46631 4.51144 4.98298 3.25033 6.01631 2.21699C7.04964 1.18366 8.31075 0.666992 9.79964 0.666992C11.2885 0.666992 12.5496 1.18366 13.583 2.21699C14.6163 3.25033 15.133 4.51144 15.133 6.00033C15.133 7.48921 14.6163 8.75033 13.583 9.78366C12.5496 10.817 11.2885 11.3337 9.79964 11.3337ZM4.46631 11.167C3.28853 10.8559 2.32742 10.2225 1.58298 9.26699C0.838531 8.31144 0.466309 7.22255 0.466309 6.00033C0.466309 4.7781 0.838531 3.68921 1.58298 2.73366C2.32742 1.7781 3.28853 1.14477 4.46631 0.833659V2.23366C3.66631 2.51144 3.02186 2.99477 2.53298 3.68366C2.04409 4.37255 1.79964 5.14477 1.79964 6.00033C1.79964 6.85588 2.04409 7.6281 2.53298 8.31699C3.02186 9.00588 3.66631 9.48921 4.46631 9.76699V11.167ZM9.79964 10.0003C10.9108 10.0003 11.8552 9.61144 12.633 8.83366C13.4108 8.05588 13.7996 7.11144 13.7996 6.00033C13.7996 4.88921 13.4108 3.94477 12.633 3.16699C11.8552 2.38921 10.9108 2.00033 9.79964 2.00033C8.68853 2.00033 7.74409 2.38921 6.96631 3.16699C6.18853 3.94477 5.79964 4.88921 5.79964 6.00033C5.79964 7.11144 6.18853 8.05588 6.96631 8.83366C7.74409 9.61144 8.68853 10.0003 9.79964 10.0003Z" fill="#9E9E9E"/>
</svg>
